<svg xmlns="http://www.w3.org/2000/svg" width="1024" height="1024" viewBox="0 0 1024 1024"><defs><linearGradient id="navy" x1="0" y1="0" x2="1" y2="1"><stop offset="0" stop-color="#26397A"/><stop offset="1" stop-color="#182650"/></linearGradient></defs><rect width="1024" height="1024" rx="0" fill="url(#navy)"/><circle cx="300.0" cy="760.0" r="520.0" fill="#1E4F86" fill-opacity="0.85"/><defs><linearGradient id="hex" x1="0" y1="0" x2="0.4" y2="1"><stop offset="0" stop-color="#1FA6E8"/><stop offset="1" stop-color="#0A6DB0"/></linearGradient></defs><path d="M512.0,212.0 L252.2,362.0 L252.2,662.0 L512.0,812.0 L771.8,662.0 L771.8,362.0 Z" fill="url(#hex)" stroke="url(#hex)" stroke-width="18.0" stroke-linejoin="round"/><g transform="translate(328.0,328.0) scale(15.333333333333334)"><path d="M11 21h-1l1-7H7.5c-.88 0-.33-.75-.31-.78C8.48 10.94 10.42 7.54 13.01 3h1l-1 7h3.51c.4 0 .62.19.4.66C12.97 17.55 11 21 11 21z" fill="#FFFFFF" stroke="#FFFFFF" stroke-width="1.1" stroke-linejoin="round" stroke-linecap="round"/></g></svg>